<svg width="80" height="72" viewBox="0 0 80 72" fill="none" xmlns="http://www.w3.org/2000/svg">
<path d="M80 35.6298C80 30.3302 73.3632 25.3078 63.1879 22.1932C65.5361 11.8223 64.4925 3.57114 59.894 0.929474C58.8341 0.309824 57.5948 0.0163063 56.2413 0.0163063V3.65267C56.9914 3.65267 57.5948 3.79943 58.1003 4.07664C60.318 5.34855 61.2801 10.1916 60.53 16.4207C60.3506 17.9535 60.0571 19.5679 59.6983 21.2148C56.5022 20.4321 53.0126 19.8288 49.3437 19.4374C47.1423 16.4207 44.8594 13.6812 42.5601 11.2841C47.8761 6.34325 52.8659 3.63636 56.2576 3.63636V0C51.7733 0 45.903 3.19609 39.9674 8.74032C34.0318 3.2287 28.1614 0.0652265 23.6771 0.0652265V3.70159C27.0526 3.70159 32.0587 6.39217 37.3746 11.3004C35.0917 13.6975 32.8088 16.4207 30.64 19.4374C26.9548 19.8288 23.4651 20.4321 20.2691 21.2311C19.894 19.6005 19.6168 18.0188 19.4211 16.5022C18.6547 10.2731 19.6005 5.43009 21.8019 4.14187C22.2911 3.84835 22.927 3.7179 23.6771 3.7179V0.0815328C22.3074 0.0815328 21.0681 0.375051 19.9918 0.9947C15.4097 3.63636 14.3824 11.8712 16.7468 22.2095C6.60416 25.3404 0 30.3465 0 35.6298C0 40.9295 6.63677 45.9519 16.8121 49.0664C14.4639 59.4374 15.5075 67.6885 20.106 70.3302C21.1659 70.9499 22.4052 71.2434 23.775 71.2434C28.2593 71.2434 34.1296 68.0473 40.0652 62.5031C46.0008 68.0147 51.8712 71.1781 56.3555 71.1781C57.7252 71.1781 58.9645 70.8846 60.0408 70.265C64.6229 67.6233 65.6502 59.3885 63.2858 49.0501C73.3958 45.9356 80 40.9132 80 35.6298ZM58.7689 24.7534C58.1655 26.8569 57.4154 29.0257 56.5675 31.1945C55.8989 29.8899 55.1977 28.5854 54.4313 27.2809C53.6812 25.9764 52.8822 24.7044 52.0832 23.4651C54.3987 23.8076 56.6327 24.2316 58.7689 24.7534ZM51.3004 42.1199C50.0285 44.3212 48.724 46.4085 47.3706 48.349C44.9409 48.5609 42.4786 48.6751 40 48.6751C37.5377 48.6751 35.0754 48.5609 32.662 48.3653C31.3086 46.4248 29.9878 44.3539 28.7159 42.1688C27.4766 40.0326 26.3514 37.8638 25.3241 35.6788C26.3351 33.4937 27.4766 31.3086 28.6996 29.1724C29.9715 26.9711 31.276 24.8838 32.6294 22.9433C35.0591 22.7313 37.5214 22.6172 40 22.6172C42.4623 22.6172 44.9246 22.7313 47.338 22.927C48.6914 24.8675 50.0122 26.9384 51.2841 29.1235C52.5234 31.2597 53.6486 33.4285 54.6759 35.6135C53.6486 37.7986 52.5234 39.9837 51.3004 42.1199ZM56.5675 40C57.448 42.1851 58.1981 44.3702 58.8178 46.49C56.6816 47.0118 54.4313 47.4521 52.0995 47.7945C52.8985 46.5389 53.6975 45.2507 54.4476 43.9299C55.1977 42.6254 55.8989 41.3045 56.5675 40ZM40.0326 57.3991C38.5161 55.8337 36.9996 54.0889 35.4994 52.181C36.967 52.2462 38.4672 52.2951 39.9837 52.2951C41.5165 52.2951 43.033 52.2625 44.5169 52.181C43.0493 54.0889 41.5328 55.8337 40.0326 57.3991ZM27.9005 47.7945C25.585 47.4521 23.351 47.0281 21.2148 46.5063C21.8182 44.4028 22.5683 42.234 23.4162 40.0652C24.0848 41.3698 24.786 42.6743 25.5524 43.9788C26.3188 45.2833 27.1015 46.5552 27.9005 47.7945ZM39.9511 13.8606C41.4676 15.426 42.9841 17.1708 44.4843 19.0787C43.0167 19.0135 41.5165 18.9645 40 18.9645C38.4672 18.9645 36.9507 18.9971 35.4668 19.0787C36.9344 17.1708 38.4509 15.426 39.9511 13.8606ZM27.8842 23.4651C27.0852 24.7207 26.2862 26.009 25.5361 27.3298C24.786 28.6343 24.0848 29.9389 23.4162 31.2434C22.5357 29.0583 21.7856 26.8732 21.1659 24.7534C23.3021 24.2479 25.5524 23.8076 27.8842 23.4651ZM13.1268 43.881C7.35426 41.4187 3.62006 38.19 3.62006 35.6298C3.62006 33.0697 7.35426 29.8247 13.1268 27.3787C14.5292 26.7754 16.062 26.2373 17.6437 25.7318C18.5732 28.9278 19.7962 32.2544 21.3127 35.6625C19.8125 39.0542 18.6058 42.3644 17.6926 45.5442C16.0783 45.0387 14.5455 44.4843 13.1268 43.881ZM21.8997 67.183C19.682 65.9111 18.7199 61.0681 19.47 54.839C19.6494 53.3062 19.9429 51.6918 20.3017 50.0448C23.4978 50.8276 26.9874 51.4309 30.6563 51.8223C32.8577 54.839 35.1406 57.5785 37.4399 59.9755C32.1239 64.9164 27.1341 67.6233 23.7424 67.6233C23.0086 67.607 22.3889 67.4603 21.8997 67.183ZM60.5789 54.7574C61.3453 60.9865 60.3995 65.8296 58.1981 67.1178C57.7089 67.4113 57.073 67.5418 56.3229 67.5418C52.9474 67.5418 47.9413 64.8512 42.6254 59.9429C44.9083 57.5459 47.1912 54.8227 49.36 51.806C53.0453 51.4146 56.5349 50.8113 59.7309 50.0122C60.106 51.6592 60.3995 53.2409 60.5789 54.7574ZM66.8569 43.881C65.4546 44.4843 63.9217 45.0224 62.34 45.5279C61.4105 42.3318 60.1875 39.0053 58.671 35.5972C60.1712 32.2055 61.3779 28.8952 62.2911 25.7154C63.9054 26.221 65.4382 26.7754 66.8732 27.3787C72.6457 29.841 76.3799 33.0697 76.3799 35.6298C76.3636 38.19 72.6294 41.435 66.8569 43.881Z" fill="#61DAFB"/>
</svg>
