<svg width="70" height="69" viewBox="0 0 70 69" fill="none" xmlns="http://www.w3.org/2000/svg">
<g clip-path="url(#clip0_652_2425)">
<path d="M1.99885 24.5727C1.99885 24.5727 0.341797 23.3782 2.33026 21.7833L6.9631 17.6407C6.9631 17.6407 8.28874 16.246 9.69033 17.4612L52.4422 49.8289V65.3499C52.4422 65.3499 52.4215 67.7872 49.2938 67.5179L1.99885 24.5727Z" fill="#2489CA"/>
<path d="M13.0226 34.5771L2.00325 44.5954C2.00325 44.5954 0.870934 45.4377 2.00325 46.9429L7.1194 51.5964C7.1194 51.5964 8.33457 52.9014 10.1297 51.4169L21.8119 42.5586L13.0226 34.5771Z" fill="#1070B3"/>
<path d="M32.3693 34.66L52.5784 19.2287L52.4472 3.79051C52.4472 3.79051 51.5842 0.42117 48.7051 2.17488L21.8125 26.6509L32.3693 34.66Z" fill="#0877B9"/>
<path d="M49.2969 67.5386C50.4706 68.74 51.8929 68.3465 51.8929 68.3465L67.6418 60.5859C69.6579 59.212 69.3748 57.5066 69.3748 57.5066V11.1644C69.3748 9.12759 67.2897 8.42335 67.2897 8.42335L53.6398 1.84347C50.6571 2.5034e-06 48.7031 2.17488 48.7031 2.17488C48.7031 2.17488 51.2163 0.365935 52.4453 3.79051V65.0669C52.4453 65.488 52.3555 65.9023 52.176 66.2751C51.817 67.0001 51.0368 67.6767 49.1657 67.3936L49.2969 67.5386Z" fill="#3C99D4"/>
</g>
<defs>
<clipPath id="clip0_652_2425">
<rect width="70" height="68.74" fill="white"/>
</clipPath>
</defs>
</svg>
