<svg width="70" height="70" viewBox="0 0 70 70" fill="none" xmlns="http://www.w3.org/2000/svg">
<g clip-path="url(#clip0_652_2401)">
<path d="M34.7799 0.190308L36.648 3.69906C37.068 4.34656 37.523 4.91968 38.0589 5.45343C39.623 7.0175 41.1083 8.65593 42.4427 10.4103C45.608 14.5666 47.743 19.1822 49.2677 24.1741C50.1821 27.2234 50.6786 30.3516 50.7158 33.5147C50.8689 42.9712 47.6271 51.0912 41.0908 57.8397C40.0233 58.9072 38.8814 59.8959 37.6564 60.7753C37.0089 60.7753 36.7027 60.2787 36.4358 59.8216C35.9393 58.9837 35.6352 58.0278 35.4821 57.0762C35.2524 55.9322 35.1014 54.7881 35.1758 53.6069V53.0731C35.1233 52.9594 34.5524 0.45937 34.7799 0.190308Z" fill="#599636"/>
<path d="M34.7842 0.0743716C34.7077 -0.0787534 34.6311 0.0371841 34.5545 0.111559C34.5917 0.877184 34.3249 1.55968 33.907 2.21156C33.4477 2.85906 32.8395 3.35562 32.2292 3.88937C28.8386 6.825 26.1699 10.3709 24.0327 14.3369C21.1889 19.6744 19.7233 25.3947 19.3077 31.4169C19.1174 33.5891 19.9945 41.2541 20.6792 43.4656C22.5474 49.3369 25.903 54.2566 30.2495 58.5266C31.317 59.5547 32.4589 60.5084 33.6402 61.425C33.9836 61.425 34.0208 61.1188 34.0995 60.8913C34.2501 60.4044 34.3649 59.9073 34.443 59.4038L35.2086 53.6856L34.7842 0.0743716Z" fill="#6CAC48"/>
<path d="M36.6528 63.0984C36.7294 62.2234 37.1494 61.4972 37.6066 60.7731C37.1472 60.5828 36.8059 60.2044 36.5391 59.7822C36.3094 59.4016 36.1191 58.9444 35.9703 58.5244C35.4366 56.9231 35.3228 55.2431 35.1697 53.6069V52.6159C34.9794 52.7691 34.94 54.0641 34.94 54.2566C34.8287 55.9859 34.5992 57.7057 34.2531 59.4038C34.1394 60.0906 34.0628 60.7753 33.6406 61.3856C33.6406 61.4622 33.6406 61.5388 33.6778 61.6525C34.3647 63.6738 34.5528 65.7322 34.6688 67.83V68.5956C34.6688 69.51 34.6316 69.3175 35.3906 69.6238C35.6969 69.7375 36.0381 69.7769 36.3444 70.0044C36.5741 70.0044 36.6113 69.8141 36.6113 69.6609L36.4975 68.4031V64.8944C36.4603 64.2819 36.5741 63.6738 36.6506 63.1006L36.6528 63.0984Z" fill="#C2BFBF"/>
</g>
<defs>
<clipPath id="clip0_652_2401">
<rect width="70" height="70" fill="white"/>
</clipPath>
</defs>
</svg>
