<svg width="60" height="60" viewBox="0 0 60 60" fill="none" xmlns="http://www.w3.org/2000/svg">
<path d="M20.0078 60C22.66 60 25.2035 58.9464 27.0789 57.0711C28.9542 55.1957 30.0078 52.6522 30.0078 50V40H20.0078C17.3556 40 14.8121 41.0536 12.9367 42.9289C11.0614 44.8043 10.0078 47.3478 10.0078 50C10.0078 52.6522 11.0614 55.1957 12.9367 57.0711C14.8121 58.9464 17.3556 60 20.0078 60Z" fill="#0ACF83"/>
<path d="M10.0078 30C10.0078 27.3478 11.0614 24.8043 12.9367 22.9289C14.8121 21.0536 17.3556 20 20.0078 20H30.0078V40H20.0078C17.3556 40 14.8121 38.9464 12.9367 37.0711C11.0614 35.1957 10.0078 32.6522 10.0078 30Z" fill="#A259FF"/>
<path d="M10.0078 10C10.0078 7.34919 11.0603 4.80683 12.934 2.93169C14.8077 1.05655 17.3492 0.00207095 20 0L30 0V20H20.0078C17.3556 20 14.8121 18.9464 12.9367 17.0711C11.0614 15.1957 10.0078 12.6522 10.0078 10Z" fill="#F24E1E"/>
<path d="M30.0078 0H40.0078C42.66 0 45.2035 1.05357 47.0789 2.92893C48.9542 4.8043 50.0078 7.34783 50.0078 10C50.0078 12.6522 48.9542 15.1957 47.0789 17.0711C45.2035 18.9464 42.66 20 40.0078 20H30.0078V0Z" fill="#FF7262"/>
<path d="M50.0078 30C50.0078 32.6522 48.9542 35.1957 47.0789 37.0711C45.2035 38.9464 42.66 40 40.0078 40C37.3556 40 34.8121 38.9464 32.9367 37.0711C31.0614 35.1957 30.0078 32.6522 30.0078 30C30.0078 27.3478 31.0614 24.8043 32.9367 22.9289C34.8121 21.0536 37.3556 20 40.0078 20C42.66 20 45.2035 21.0536 47.0789 22.9289C48.9542 24.8043 50.0078 27.3478 50.0078 30Z" fill="#1ABCFE"/>
</svg>
